<?xml version="1.0" standalone="no"?>
<!DOCTYPE svg PUBLIC "-//W3C//DTD SVG 20010904//EN"
 "http://www.w3.org/TR/2001/REC-SVG-20010904/DTD/svg10.dtd">
<svg version="1.0" xmlns="http://www.w3.org/2000/svg"
 width="231.000000pt" height="231.000000pt" viewBox="0 0 231.000000 231.000000"
 preserveAspectRatio="xMidYMid meet">

<g transform="translate(0.000000,231.000000) scale(0.100000,-0.100000)"
fill="#000000" stroke="none">
<path d="M266 2080 l-56 -60 2 -899 c3 -897 3 -900 24 -928 12 -15 36 -37 55
-48 33 -20 52 -20 849 -20 804 0 815 0 850 21 19 11 45 35 57 54 l23 33 0 895
c0 892 0 894 -21 932 -12 21 -38 47 -59 59 -38 21 -39 21 -853 21 l-814 -1
-57 -59z m524 -260 c5 -9 78 -110 163 -225 148 -202 287 -394 458 -632 45 -62
85 -113 90 -113 5 0 9 209 9 485 0 469 1 485 19 495 30 16 207 13 223 -4 12
-11 14 -131 16 -687 1 -423 -1 -680 -8 -689 -7 -12 -36 -16 -127 -18 -138 -4
-120 -15 -229 139 -160 225 -305 429 -398 557 -54 75 -125 176 -157 225 -33
48 -64 87 -69 87 -6 0 -11 -188 -12 -502 l-3 -503 -108 -3 c-62 -1 -115 2
-127 8 -20 11 -20 21 -20 690 0 621 1 680 17 695 14 14 34 16 135 13 95 -2
121 -6 128 -18z"/>
</g>
</svg>
